<?xml version="1.0" standalone="no"?>
<!DOCTYPE svg PUBLIC "-//W3C//DTD SVG 20010904//EN"
 "http://www.w3.org/TR/2001/REC-SVG-20010904/DTD/svg10.dtd">
<svg version="1.0" xmlns="http://www.w3.org/2000/svg"
 width="261.000000pt" height="261.000000pt" viewBox="0 0 261.000000 261.000000"
 preserveAspectRatio="xMidYMid meet">
<metadata>
Created by potrace 1.14, written by Peter Selinger 2001-2017
</metadata>
<g transform="translate(0.000000,261.000000) scale(0.100000,-0.100000)"
fill="#000000" stroke="none">
<path d="M672 2243 c-61 -30 -82 -138 -34 -177 l23 -18 -53 -27 c-67 -33 -137
-102 -168 -166 -30 -63 -38 -204 -14 -260 8 -20 12 -41 8 -47 -4 -7 -3 -8 4
-4 7 4 12 2 12 -3 0 -18 4 -24 30 -52 94 -102 119 -132 114 -140 -3 -5 0 -8 8
-7 7 2 12 -3 10 -10 -1 -8 1 -11 6 -8 12 7 78 -75 74 -94 -2 -12 -1 -12 6 -1
8 10 12 9 23 -6 8 -11 24 -22 37 -26 20 -5 21 -3 10 10 -12 14 -11 15 9 5 14
-8 24 -9 28 -2 6 10 -1 14 -18 11 -4 -1 -3 8 3 19 9 17 30 20 30 4 0 -3 -5 -2
-12 2 -7 4 -8 3 -4 -5 10 -16 26 -4 19 14 -4 11 -1 13 11 9 12 -5 16 0 16 17
0 12 3 20 6 16 6 -6 24 6 51 35 9 9 20 15 23 13 4 -3 5 7 2 20 -2 14 0 25 7
25 5 0 8 -8 5 -17 -5 -17 -5 -17 6 0 6 9 16 14 22 11 7 -5 8 -2 2 7 -14 23
-13 38 2 32 8 -3 14 -10 14 -16 0 -6 3 -7 6 -4 4 4 1 13 -6 22 -15 18 0 20 20
3 8 -7 7 -4 -3 8 -11 13 -13 24 -7 30 7 7 2 21 -15 44 -13 18 -22 37 -19 41 3
5 1 9 -4 9 -5 0 -15 14 -22 31 l-13 31 -22 -29 c-13 -15 -52 -58 -88 -96 -46
-47 -70 -65 -82 -61 -10 4 -14 13 -10 22 3 9 3 13 -1 9 -9 -9 -84 74 -77 86 3
6 1 7 -5 3 -6 -3 -18 4 -26 16 -12 17 -13 25 -4 37 10 13 10 14 -2 4 -19 -18
-27 -16 -33 7 -3 12 1 23 10 29 13 7 13 9 -1 14 -12 5 -15 3 -10 -6 4 -6 3 -8
-1 -4 -15 14 -14 41 2 59 9 10 12 18 8 18 -4 0 -1 8 7 18 22 25 27 44 16 66
-7 12 -7 16 0 12 6 -3 17 1 25 9 17 16 32 21 23 7 -3 -5 1 -9 8 -9 8 0 11 9 8
25 -3 17 -1 23 7 18 6 -4 8 -12 5 -18 -4 -7 -2 -8 4 -4 6 4 9 14 6 24 -5 14
-3 14 10 -2 14 -17 16 -18 16 -3 0 9 3 17 8 18 4 0 15 2 25 4 9 2 17 -1 17 -7
0 -6 -7 -8 -15 -5 -8 4 -17 1 -21 -6 -4 -7 -4 -9 1 -5 4 4 14 3 20 -2 9 -8 14
-6 19 5 4 11 13 14 33 9 42 -11 87 -41 71 -47 -9 -4 -8 -6 3 -6 19 -1 53 -47
44 -60 -3 -5 -1 -11 4 -13 8 -2 23 -99 24 -155 0 -7 4 -13 9 -13 4 0 7 -3 7
-7 -1 -5 0 -11 1 -15 1 -5 3 -11 4 -15 3 -17 48 -83 54 -79 4 2 18 -12 32 -31
14 -19 40 -49 58 -67 17 -17 32 -37 32 -44 0 -7 5 -10 10 -7 5 3 10 -1 10 -10
0 -9 5 -13 10 -10 6 3 10 1 10 -5 0 -7 15 -26 33 -43 17 -16 31 -33 30 -36 0
-3 5 -12 13 -19 8 -7 14 -8 14 -3 0 6 7 7 17 4 10 -4 14 -2 9 5 -3 6 -2 13 3
16 5 4 13 1 17 -5 5 -8 3 -9 -6 -4 -9 5 -11 4 -6 -4 4 -6 12 -9 17 -5 5 3 6
10 3 16 -5 8 -1 9 12 4 10 -4 15 -4 11 0 -4 4 -2 13 4 21 9 10 15 10 25 2 9
-7 14 -8 14 -1 0 18 -29 22 -45 6 -8 -9 -15 -11 -15 -4 0 6 7 13 15 16 8 4 15
14 15 23 0 10 3 12 8 5 4 -6 15 -11 26 -11 18 0 18 1 0 14 -10 7 -12 13 -5 13
7 0 10 4 6 9 -3 5 0 13 6 17 8 4 9 3 5 -4 -4 -7 -2 -12 4 -12 6 0 8 -5 4 -12
-4 -6 -3 -8 4 -5 5 4 8 16 5 27 -3 12 0 20 6 20 7 0 10 -4 6 -9 -3 -5 -1 -12
4 -15 10 -7 9 13 -2 31 -5 8 -1 11 14 8 21 -4 59 26 59 47 0 5 -10 -3 -23 -18
-20 -23 -25 -25 -30 -11 -3 9 -3 16 1 16 22 -4 33 3 28 16 -3 8 0 14 7 12 7
-1 11 3 10 10 -2 9 4 10 23 3 17 -7 23 -7 19 0 -9 14 8 12 25 -2 12 -11 12
-10 1 5 -9 11 -21 15 -35 12 -17 -5 -18 -4 -6 4 8 6 15 16 15 22 0 7 7 14 15
16 11 4 12 2 2 -4 -12 -9 -7 -17 66 -96 9 -11 16 -23 14 -29 -1 -5 1 -7 6 -4
5 3 21 -8 36 -24 14 -17 23 -30 19 -30 -5 0 3 -6 17 -13 13 -7 30 -24 37 -37
7 -14 13 -22 13 -17 0 4 9 -2 20 -13 12 -12 18 -26 14 -31 -4 -8 -1 -8 13 -1
11 6 25 7 34 1 13 -7 15 -4 11 19 -5 27 -5 27 14 7 10 -11 16 -16 12 -11 -14
18 -9 49 7 42 8 -3 15 -1 15 4 0 6 5 9 11 7 6 -1 13 8 15 21 3 17 0 21 -8 16
-9 -5 -9 -2 1 9 10 13 17 14 27 6 18 -14 38 23 22 39 -7 7 -9 12 -6 12 4 0 15
-8 24 -17 17 -17 18 -17 11 0 -4 10 -1 28 5 40 7 12 11 25 10 29 -1 4 5 5 13
1 13 -5 13 -7 -2 -20 -16 -13 -16 -13 5 -3 16 8 20 15 14 23 -12 15 28 65 46
59 7 -2 12 1 12 8 0 6 5 8 10 5 6 -4 7 -11 4 -17 -4 -7 -2 -8 4 -4 9 5 9 12 0
26 -10 15 -15 17 -28 7 -13 -11 -13 -10 -1 6 11 14 16 15 29 5 13 -11 14 -10
3 10 -8 15 -8 22 -1 22 6 0 8 4 5 10 -3 5 0 7 8 4 20 -7 28 8 15 26 -8 12 -8
11 -3 -5 5 -16 4 -17 -6 -8 -10 10 -9 15 0 27 7 8 10 20 6 26 -3 5 1 10 10 10
15 0 15 1 0 16 -15 15 -15 18 2 37 10 11 12 17 6 13 -8 -4 -13 -2 -14 6 0 7
-2 21 -4 31 -2 9 4 25 13 34 16 16 16 16 0 11 -21 -9 -31 2 -15 16 7 6 10 10
8 9 -8 -5 -31 20 -25 28 3 5 0 9 -5 9 -6 0 -11 5 -11 11 0 6 -9 23 -20 39 -11
15 -16 31 -12 35 4 5 2 5 -4 2 -6 -3 -17 2 -26 11 -23 26 -60 56 -91 71 -28
15 -35 35 -17 46 6 4 8 12 4 18 -3 7 2 3 12 -8 l17 -20 -8 20 c-14 41 -14 54
1 48 10 -4 12 0 8 11 -3 9 -9 14 -13 11 -4 -2 -8 2 -8 9 0 53 -57 106 -113
106 -39 0 -88 -30 -104 -65 -20 -41 -20 -72 -1 -109 8 -15 15 -30 15 -31 0 -2
-17 -9 -37 -16 -66 -21 -110 -47 -157 -93 -25 -25 -48 -42 -50 -37 -3 5 -2 11
2 15 4 4 7 13 7 19 1 13 -103 87 -122 87 -6 0 -15 5 -19 12 -4 6 -3 8 2 5 6
-3 16 14 23 39 7 24 17 41 22 38 5 -3 9 0 9 5 0 6 -4 11 -10 11 -5 0 -10 10
-10 23 0 24 -33 68 -65 84 -31 17 -101 9 -126 -13 -26 -23 -48 -71 -45 -99 4
-38 18 -75 29 -75 20 0 -3 -13 -52 -30 -27 -9 -69 -32 -93 -50 l-44 -34 32
-65 c18 -36 30 -69 28 -72 -7 -12 27 -19 45 -9 10 5 22 6 26 2 5 -4 5 -1 1 6
-5 9 -13 9 -29 1 -22 -10 -22 -10 -2 6 11 9 18 22 17 28 -2 7 0 9 4 5 4 -4 13
0 21 10 11 15 12 15 7 1 -8 -24 11 -32 27 -12 8 9 9 14 3 10 -6 -3 -11 0 -11
7 0 8 7 12 15 8 10 -3 13 -1 8 6 -5 8 -1 10 10 5 13 -5 15 -3 9 8 -7 12 -6 12
7 1 13 -10 22 -11 37 -3 13 8 22 8 26 1 4 -6 1 -9 -6 -8 -6 2 -14 -4 -16 -12
-3 -10 -2 -11 4 -4 4 6 18 10 31 9 12 -1 22 2 22 7 0 5 5 6 10 3 6 -4 8 -10 5
-15 -3 -5 4 -7 15 -5 11 2 18 0 15 -6 -4 -5 -2 -9 4 -9 16 0 61 -52 55 -64 -3
-6 4 0 15 13 12 12 18 28 14 34 -3 5 -1 7 4 4 12 -8 5 -57 -9 -57 -5 0 -5 -6
0 -16 12 -22 -3 -120 -25 -155 -23 -36 -162 -179 -174 -179 -5 0 -9 7 -9 16 0
9 -5 12 -12 8 -7 -5 -9 -2 -5 9 4 11 2 14 -9 10 -7 -3 -14 0 -14 6 0 7 -16 28
-35 47 -20 19 -33 39 -29 45 3 5 0 8 -6 7 -18 -4 -63 79 -48 88 6 4 8 3 4 -4
-3 -6 -2 -13 3 -16 5 -4 8 2 6 11 -1 10 -8 17 -14 15 -6 -1 -11 1 -12 5 0 5
-2 18 -3 31 -2 16 1 19 8 12 5 -5 14 -10 20 -10 5 0 0 8 -11 18 -10 9 -20 27
-21 40 -3 43 -5 52 -14 52 -4 0 -7 3 -6 8 5 13 -24 72 -35 72 -6 0 -8 3 -4 6
5 6 -10 23 -64 69 -26 22 -100 60 -111 57 -10 -3 -6 41 6 57 8 11 8 13 -1 7
-7 -4 -13 -4 -14 1 0 4 -2 16 -4 26 -2 9 0 17 4 17 21 0 0 45 -37 79 -46 44
-86 50 -140 24z m172 -175 c-3 -31 -3 -30 -14 -23 -7 4 -7 13 0 26 14 25 17
24 14 -3z m961 -178 c-3 -5 -1 -10 5 -10 6 0 8 -6 4 -12 -4 -8 -3 -10 2 -5 5
5 9 14 9 20 0 20 56 11 75 -12 3 -3 14 -13 25 -21 20 -15 20 -15 0 10 l-20 25
28 -25 c17 -15 25 -30 22 -40 -5 -12 -4 -12 6 -3 10 10 15 7 26 -13 7 -15 10
-31 6 -37 -3 -6 -1 -7 5 -3 8 5 12 -1 13 -16 1 -13 2 -35 3 -50 2 -15 -5 -45
-15 -65 -17 -37 -137 -181 -164 -196 -9 -5 -28 8 -57 39 -24 26 -59 63 -78 84
-20 20 -43 48 -53 61 l-17 24 5 -28 c2 -15 0 -25 -4 -22 -5 2 -8 15 -7 27 1
18 7 23 26 21 l25 -2 -22 11 c-25 12 -32 34 -9 25 10 -4 12 0 8 15 -4 16 -2
19 8 13 8 -5 11 -4 6 3 -4 6 -14 9 -24 6 -10 -4 -13 -2 -7 3 15 12 17 33 3 33
-6 0 -3 6 7 14 11 8 24 12 28 9 5 -3 4 4 -2 15 -9 18 -8 23 9 32 11 6 18 15
16 19 -3 4 1 8 9 8 13 0 12 -4 -2 -19 -9 -10 -13 -18 -10 -18 4 0 10 0 15 0 4
0 7 5 7 10 0 16 26 29 44 23 14 -4 14 -3 1 5 -8 6 -17 9 -21 6 -4 -2 -11 1
-15 8 -4 7 -3 10 1 5 5 -4 16 0 26 9 13 12 19 12 25 3 5 -8 3 -10 -6 -4 -9 6
-11 4 -5 -5 7 -11 12 -9 23 8 14 21 29 32 17 12z m-294 -23 c-6 -8 -7 -18 -3
-22 4 -5 1 -5 -6 -1 -10 6 -10 11 -1 22 6 8 14 14 16 14 3 0 0 -6 -6 -13z
m-908 -73 c-7 -3 -10 -11 -7 -19 3 -7 0 -16 -7 -21 -9 -5 -10 -2 -6 9 4 10 1
17 -6 17 -8 0 -6 4 3 10 8 5 20 9 25 9 6 0 5 -3 -2 -5z m1025 -229 c-3 -3 -9
2 -12 12 -6 14 -5 15 5 6 7 -7 10 -15 7 -18z m-32 -37 c-9 -12 -16 -19 -16
-15 0 11 24 47 28 42 2 -2 -3 -14 -12 -27z m-691 -188 c-10 -11 -23 -20 -29
-19 -6 0 -6 3 2 6 6 2 9 10 6 15 -4 7 -2 8 5 4 6 -4 14 0 17 9 4 9 9 13 12 10
3 -2 -3 -14 -13 -25z m1079 -5 c-4 -8 -8 -15 -10 -15 -2 0 -4 7 -4 15 0 8 4
15 10 15 5 0 7 -7 4 -15z m-50 -53 c2 -4 -5 -9 -17 -9 -17 -2 -19 0 -7 7 18
12 18 12 24 2z"/>
<path d="M1837 1873 c3 -7 6 -13 8 -13 2 0 5 6 8 13 3 8 -1 14 -8 14 -7 0 -11
-6 -8 -14z"/>
<path d="M1870 1870 c0 -5 5 -10 11 -10 5 0 7 5 4 10 -3 6 -8 10 -11 10 -2 0
-4 -4 -4 -10z"/>
<path d="M1670 1806 c0 -2 8 -10 18 -17 15 -13 16 -12 3 4 -13 16 -21 21 -21
13z"/>
<path d="M1434 2098 c-11 -17 -14 -59 -4 -53 5 3 7 12 3 20 -3 8 -1 15 4 15 5
0 10 7 10 15 0 18 -3 19 -13 3z"/>
<path d="M1987 2099 c7 -7 15 -10 18 -7 3 3 -2 9 -12 12 -14 6 -15 5 -6 -5z"/>
<path d="M790 1871 c0 -6 4 -13 10 -16 6 -3 7 1 4 9 -7 18 -14 21 -14 7z"/>
<path d="M1240 1870 c-12 -7 -10 -9 7 -7 12 0 19 5 17 9 -6 10 -6 10 -24 -2z"/>
<path d="M1165 1830 c-3 -5 -1 -10 4 -10 6 0 11 5 11 10 0 6 -2 10 -4 10 -3 0
-8 -4 -11 -10z"/>
<path d="M1115 1769 c-4 -6 -5 -12 -2 -15 2 -3 7 2 10 11 7 17 1 20 -8 4z"/>
<path d="M2174 1746 c1 -8 5 -18 8 -22 4 -3 5 1 4 10 -1 8 -5 18 -8 22 -4 3
-5 -1 -4 -10z"/>
<path d="M2175 1670 c3 -5 8 -10 11 -10 2 0 4 5 4 10 0 6 -5 10 -11 10 -5 0
-7 -4 -4 -10z"/>
<path d="M2077 1452 c-15 -16 -15 -18 1 -18 10 0 19 8 19 18 1 10 0 18 -1 18
-2 0 -10 -8 -19 -18z"/>
<path d="M1030 1450 c0 -5 5 -10 11 -10 5 0 7 5 4 10 -3 6 -8 10 -11 10 -2 0
-4 -4 -4 -10z"/>
<path d="M2469 1253 c-1 -5 -2 -66 -3 -138 -1 -71 -5 -136 -9 -142 -5 -7 -4
-13 0 -13 5 0 9 -13 9 -30 1 -16 -3 -30 -8 -30 -5 0 -6 5 -3 10 3 6 1 10 -5
10 -6 0 -9 4 -6 9 3 5 -1 11 -9 15 -8 3 -15 13 -15 21 0 9 -4 14 -9 11 -5 -3
-14 1 -20 8 -10 12 -84 33 -102 28 -4 0 -19 -3 -35 -6 -16 -3 -40 -14 -54 -24
-33 -25 -71 -82 -63 -95 3 -6 1 -7 -5 -3 -9 5 -8 15 3 36 9 17 15 32 15 35 -1
30 1 35 13 29 9 -5 9 -4 -1 7 -7 7 -23 14 -36 15 -21 1 -29 -11 -67 -97 -23
-54 -46 -96 -50 -93 -5 3 -6 -1 -3 -9 10 -26 -11 -26 -23 -1 -6 13 -7 22 -2
18 5 -3 9 0 9 5 0 6 -7 11 -16 11 -11 0 -14 6 -9 21 5 13 3 19 -3 15 -9 -5
-23 22 -26 50 -1 6 -8 20 -16 30 -13 16 -13 17 0 10 9 -4 8 -1 -2 7 -10 8 -18
18 -18 23 0 5 -27 9 -60 9 -41 0 -60 -4 -60 -12 0 -16 0 -16 -39 3 -45 23
-112 20 -163 -7 -36 -18 -58 -41 -51 -52 4 -6 0 -8 -8 -5 -12 5 -14 -8 -13
-81 3 -98 6 -132 13 -126 6 7 36 -38 33 -48 -1 -5 2 -6 8 -2 13 8 42 -20 32
-31 -4 -5 0 -3 9 4 9 6 19 8 23 4 11 -10 76 -10 76 1 0 5 7 1 16 -7 12 -12 20
-13 35 -6 10 6 19 13 19 15 0 8 -25 1 -33 -10 -5 -6 -7 -4 -4 5 2 9 13 14 28
13 61 -7 75 -9 89 -18 12 -7 13 -6 4 6 -6 8 -9 28 -7 44 2 17 3 35 3 40 0 6
-2 38 -3 72 -2 40 1 60 8 57 5 -3 1 2 -9 10 -12 10 -15 16 -7 16 8 0 11 6 7
15 -3 9 0 15 8 15 13 0 32 -38 107 -217 18 -45 36 -77 40 -72 3 5 13 7 21 4
19 -8 33 11 17 21 -8 4 -9 3 -5 -4 4 -7 2 -12 -3 -12 -6 0 -11 7 -11 16 0 12
6 15 23 11 20 -5 20 -5 5 7 -21 16 -24 27 -4 20 18 -7 30 12 15 22 -8 5 -9 3
-4 -6 5 -9 4 -11 -3 -6 -9 5 -9 13 0 29 7 12 12 28 13 36 0 8 7 16 15 18 11 3
12 2 3 -4 -7 -5 -11 -19 -8 -31 2 -15 0 -20 -7 -16 -7 4 -8 3 -4 -4 13 -21 27
-13 22 13 -3 17 1 28 13 34 22 12 38 2 46 -30 8 -31 47 -75 75 -84 11 -3 20
-11 20 -16 0 -6 7 -6 19 0 10 6 22 7 26 3 10 -10 29 -9 38 3 5 6 7 3 3 -7 -7
-24 13 -34 30 -14 8 9 9 11 2 6 -7 -6 -17 -10 -23 -10 -5 0 -2 7 8 15 26 19
52 9 35 -14 -12 -14 -11 -15 5 -2 13 10 15 17 6 27 -9 11 -8 15 4 20 9 3 20 3
26 0 5 -4 12 -2 15 3 4 5 1 13 -5 17 -8 5 -9 3 -4 -6 5 -9 4 -11 -4 -6 -16 10
-4 26 15 19 8 -3 14 -2 12 3 -2 5 1 9 7 9 5 0 11 -9 12 -20 3 -17 1 -17 -8 -5
-8 13 -10 12 -7 -4 2 -11 14 -23 29 -27 23 -6 31 -2 49 24 13 16 18 27 11 23
-12 -8 -12 -6 -15 62 -1 34 1 41 13 37 12 -5 11 -2 -2 13 -16 17 -15 19 1 36
9 11 11 16 5 12 -8 -4 -13 -1 -14 8 -1 9 -2 22 -3 29 -1 6 2 18 8 26 14 18 16
40 6 46 -5 3 -7 -4 -5 -15 2 -11 0 -18 -4 -16 -10 7 -8 47 4 66 13 21 15 39 5
45 -5 3 -7 -4 -5 -15 2 -11 0 -18 -4 -16 -10 7 -8 47 4 66 13 21 15 39 5 45
-5 3 -7 -4 -5 -16 2 -12 1 -18 -3 -15 -4 4 -8 34 -8 67 -2 90 -2 89 -29 89
-14 0 -25 -3 -26 -7z m-805 -305 c-7 -11 10 -10 22 2 7 7 17 3 32 -10 12 -12
22 -17 22 -13 0 4 10 -7 22 -25 65 -103 -37 -238 -139 -184 -39 21 -55 51 -58
107 -2 30 1 53 5 50 5 -3 7 -15 5 -27 -3 -11 -1 -17 3 -14 4 4 7 13 7 19 1 7
5 11 11 10 5 -1 10 9 10 22 0 13 -4 21 -8 19 -5 -3 -6 -9 -3 -14 3 -5 1 -11
-4 -14 -5 -3 -11 1 -15 9 -3 8 -1 15 5 15 6 0 8 4 5 9 -3 5 8 8 25 7 16 -1 32
1 35 6 3 5 11 5 17 2 7 -4 8 -3 4 1 -10 12 -38 15 -32 4 4 -5 -1 -6 -10 -3
-14 6 -14 8 1 19 19 13 46 16 38 3z m651 2 c3 -5 12 -7 20 -3 9 3 15 -1 15 -9
0 -7 9 -19 20 -26 11 -7 20 -19 20 -28 0 -14 -11 -16 -84 -12 -46 3 -89 9 -95
13 -18 11 36 64 60 60 11 -2 19 0 19 6 0 12 17 12 25 -1z m-195 -101 c4 7 7
-3 8 -22 1 -29 -2 -34 -21 -33 -12 1 -22 8 -22 16 0 9 7 14 20 12 16 -3 18 -1
8 9 -7 7 -13 18 -12 24 0 5 3 4 6 -4 4 -10 7 -10 13 -2z m100 -49 c-8 -6 -13
-10 -10 -11 3 0 13 -2 22 -4 10 -2 21 2 25 7 3 7 1 8 -5 4 -7 -4 -12 -2 -12 4
0 7 7 10 15 6 8 -3 15 0 15 7 0 7 3 8 8 2 10 -14 30 -17 50 -6 11 6 24 6 32 1
9 -6 18 -4 23 3 6 8 7 6 3 -5 -3 -10 -1 -20 4 -23 6 -4 10 -10 10 -15 0 -13
-49 -60 -63 -61 -7 0 -20 -2 -29 -4 -9 -2 -35 6 -58 17 -31 16 -38 23 -30 33
8 10 8 15 -1 21 -8 5 -9 3 -4 -6 5 -9 4 -11 -4 -6 -6 4 -9 12 -6 17 4 5 1 9
-6 9 -7 0 -4 6 7 14 10 8 21 12 24 10 2 -3 -2 -9 -10 -14z m193 -3 c-3 -7 4
-3 17 8 13 11 20 14 15 6 -6 -10 -4 -13 6 -9 10 4 14 -4 15 -28 0 -19 -3 -34
-8 -34 -5 0 -7 4 -4 9 3 5 -11 17 -32 27 -20 9 -31 19 -24 22 6 2 9 9 6 14 -4
7 -2 8 5 4 6 -4 8 -13 4 -19z"/>
<path d="M1701 933 c7 -12 15 -20 18 -17 3 2 -3 12 -13 22 -17 16 -18 16 -5
-5z"/>
<path d="M2295 940 c-4 -6 -11 -8 -16 -5 -5 4 -9 1 -9 -4 0 -14 17 -14 26 0 4
8 9 7 15 -2 6 -10 9 -10 9 -2 0 16 -17 26 -25 13z"/>
<path d="M2231 916 c-18 -19 -20 -24 -7 -22 9 1 16 6 15 11 0 4 5 11 12 16 8
4 11 10 8 13 -3 3 -16 -5 -28 -18z"/>
<path d="M2334 797 c-4 -7 -4 -9 1 -5 4 4 14 3 22 -3 8 -7 13 -8 13 -1 0 15
-28 23 -36 9z"/>
<path d="M2270 791 c0 -6 4 -13 10 -16 6 -3 7 1 4 9 -7 18 -14 21 -14 7z"/>
<path d="M2553 1159 c-2 -23 3 -25 10 -4 4 8 3 16 -1 19 -4 3 -9 -4 -9 -15z"/>
<path d="M1092 1085 l3 -50 48 1 c26 0 47 -4 47 -9 0 -5 7 -6 16 -3 13 5 15
-7 12 -98 -1 -57 -6 -102 -10 -100 -4 2 -5 13 -3 24 2 11 -1 22 -7 26 -6 4 -5
10 3 15 11 7 11 9 -2 9 -17 0 -34 27 -30 45 2 6 0 7 -4 3 -4 -4 -21 1 -38 11
-35 18 -106 20 -147 3 -32 -14 -81 -57 -73 -65 3 -4 -2 -10 -12 -13 -19 -8
-38 13 -28 31 4 5 3 7 -2 3 -4 -4 -16 2 -26 13 -39 45 -137 56 -200 24 -31
-17 -69 -61 -69 -81 0 -8 -4 -14 -8 -14 -4 0 -8 -21 -7 -47 0 -35 9 -63 31
-101 17 -30 34 -53 38 -53 20 3 26 0 26 -13 0 -20 17 -29 26 -15 4 8 3 9 -4 5
-7 -4 -12 -3 -12 2 0 6 11 9 24 8 18 -1 22 -4 14 -13 -13 -16 -3 -17 24 -2 18
10 19 8 13 -12 -6 -19 -5 -20 8 -8 8 8 14 18 14 24 -3 14 36 12 54 -2 13 -11
16 -10 16 2 0 8 -4 12 -9 9 -4 -3 -8 0 -8 5 0 12 36 15 43 4 2 -5 2 -3 1 4 -2
6 2 13 8 15 13 5 17 58 5 75 -5 7 -13 10 -18 7 -5 -3 -8 0 -7 7 5 24 -26 14
-53 -15 -32 -36 -82 -42 -115 -13 -17 15 -21 24 -14 37 5 10 6 21 2 26 -4 5 0
3 10 -4 12 -10 18 -10 23 -1 6 8 10 7 17 -5 5 -9 14 -13 20 -10 8 5 9 1 5 -10
-4 -10 -3 -15 3 -11 17 10 12 38 -6 31 -8 -3 -12 -2 -9 4 8 13 56 4 67 -12 6
-10 8 -10 8 1 0 7 6 11 14 8 7 -3 19 0 26 6 10 9 11 9 6 0 -5 -9 1 -13 17 -13
28 0 42 -31 23 -50 -6 -6 -7 -11 -1 -10 22 5 29 -1 15 -10 -13 -8 -13 -10 1
-10 20 0 51 -34 42 -45 -5 -4 -3 -5 4 -2 6 4 19 4 28 1 13 -5 14 -8 3 -15 -9
-6 -9 -9 -1 -9 6 0 15 5 18 10 4 7 12 7 24 0 10 -5 21 -6 25 -3 3 3 6 0 6 -8
0 -11 2 -11 8 -2 5 7 22 15 40 17 17 2 30 0 27 -3 -2 -4 1 -13 6 -21 9 -13 10
-13 7 0 -4 26 12 59 33 65 10 4 17 10 14 15 -3 5 -1 11 4 15 5 3 9 14 8 25 -1
10 -5 16 -10 13 -4 -3 -17 3 -27 12 -17 16 -19 15 -30 -4 -14 -26 -62 -51 -88
-46 -29 5 -65 25 -58 32 3 3 1 14 -4 24 -7 12 -6 20 2 25 7 5 8 3 4 -5 -5 -8
-3 -12 5 -10 29 3 40 -1 33 -13 -6 -10 -4 -10 8 0 13 10 17 10 21 0 4 -10 6
-10 6 0 1 6 10 12 20 12 11 0 23 5 26 10 5 8 11 8 19 1 9 -7 17 -7 26 2 10 9
11 9 6 0 -8 -15 10 -18 19 -3 3 5 13 6 22 3 12 -5 14 -3 8 8 -5 8 -4 11 0 6 5
-4 10 -38 11 -76 1 -77 7 -91 33 -86 10 2 24 -1 32 -7 11 -8 11 -9 -3 -4 -10
3 -20 1 -22 -3 -5 -7 12 -8 47 -2 5 0 5 6 1 13 -4 6 -3 8 3 5 5 -4 20 3 31 14
24 21 31 39 9 21 -10 -9 -13 -5 -11 16 2 41 3 44 14 37 6 -3 7 1 4 9 -3 9 -10
13 -15 10 -5 -3 -4 7 2 23 14 38 17 93 6 100 -6 3 -7 2 -4 -3 3 -6 2 -16 -3
-23 -5 -9 -7 -2 -6 18 0 17 5 29 11 27 6 -2 11 5 11 15 0 12 -4 15 -11 9 -7
-6 -10 0 -9 18 2 41 3 44 14 37 6 -3 7 1 4 9 -3 9 -11 13 -17 9 -6 -3 -7 -1
-3 6 4 6 13 9 19 5 7 -3 3 2 -8 12 -17 14 -17 16 -2 11 10 -4 17 -1 17 6 0 9
3 8 9 -1 11 -18 12 -18 39 -3 19 10 22 9 22 -6 1 -16 2 -16 13 -2 7 9 19 15
27 14 9 -2 17 5 17 16 1 11 -3 19 -10 19 -6 0 -2 7 9 16 10 8 14 13 7 10 -6
-4 -14 -2 -18 4 -3 5 -1 10 5 10 7 0 6 6 -3 14 -12 12 -50 15 -201 13 l-187
-1 3 -51z m-314 -202 c7 -7 10 -13 5 -13 -4 0 -1 -5 7 -10 13 -8 12 -10 -5
-11 -11 -1 -24 0 -30 1 -5 1 -28 2 -50 2 -37 0 -38 1 -15 11 14 5 28 10 32 9
3 -1 9 5 12 13 5 13 2 13 -24 0 -35 -18 -43 -19 -38 -3 2 6 15 13 28 15 13 2
26 5 28 8 6 6 35 -7 50 -22z m276 15 c-3 -5 -9 -6 -13 -4 -4 3 -12 -4 -19 -15
-7 -11 -8 -19 -2 -19 5 0 10 5 10 11 0 6 9 9 20 6 11 -3 18 -2 16 2 -3 4 -1
13 5 21 7 12 9 11 10 -5 0 -12 3 -15 6 -7 4 10 8 9 19 -5 19 -25 17 -38 -3
-22 -9 8 -14 9 -10 3 4 -7 0 -14 -8 -18 -8 -3 -15 -2 -15 3 0 4 -21 6 -47 5
-33 -2 -43 0 -33 6 8 5 15 14 15 20 0 6 6 14 13 19 17 10 43 10 36 -1z m289
-83 c-3 -9 -8 -14 -10 -11 -3 3 -2 9 2 15 9 16 15 13 8 -4z m-279 -24 c-8 -8
-34 -10 -38 -2 -3 4 6 7 19 7 14 0 22 -2 19 -5z m-204 -106 c-7 -9 -15 -13
-19 -10 -3 3 1 10 9 15 21 14 24 12 10 -5z"/>
<path d="M746 873 c-6 -14 -5 -15 5 -6 7 7 10 15 7 18 -3 3 -9 -2 -12 -12z"/>
<path d="M2555 1079 c-4 -6 -5 -12 -2 -15 2 -3 7 2 10 11 7 17 1 20 -8 4z"/>
<path d="M1156 1015 c4 -8 8 -15 10 -15 2 0 4 7 4 15 0 8 -4 15 -10 15 -5 0
-7 -7 -4 -15z"/>
<path d="M1187 1009 c7 -7 15 -10 18 -7 3 3 -2 9 -12 12 -14 6 -15 5 -6 -5z"/>
<path d="M1370 889 c3 -71 3 -129 0 -129 -3 0 -3 -22 -2 -48 3 -35 9 -52 24
-61 16 -10 18 -10 12 0 -5 9 -2 10 9 6 10 -3 17 -2 17 3 0 5 8 11 18 13 16 4
16 5 0 6 -10 0 -18 6 -18 12 0 5 4 8 8 5 5 -3 9 1 9 9 0 8 -4 12 -9 9 -17 -11
-7 9 14 25 17 14 18 18 5 18 -9 0 -14 -4 -11 -9 3 -4 0 -8 -5 -8 -15 0 -14 13
2 29 10 11 10 13 0 7 -7 -4 -13 -3 -13 2 0 6 7 12 15 16 8 3 15 11 14 18 0 10
-2 10 -6 1 -11 -29 -20 -10 -19 41 1 54 1 54 31 51 17 -2 24 -1 17 2 -12 5
-37 43 -28 43 2 0 12 -8 22 -17 17 -17 17 -17 12 3 -4 14 0 20 11 20 9 -1 17
3 18 8 1 5 7 13 15 18 10 7 9 11 -7 20 -29 17 -53 20 -77 7 -16 -9 -23 -8 -29
2 -7 11 -9 11 -9 1 0 -8 -5 -10 -12 -5 -31 19 -33 9 -28 -118z"/>
<path d="M2555 999 c-4 -6 -5 -12 -2 -15 2 -3 7 2 10 11 7 17 1 20 -8 4z"/>
<path d="M200 973 c-13 -3 -33 -11 -44 -19 -24 -16 -40 -18 -31 -4 6 9 -4 13
-40 13 -8 0 -19 -1 -25 -2 -6 -1 -10 -59 -10 -151 0 -147 1 -151 23 -159 14
-6 27 -5 36 3 10 7 13 7 8 0 -3 -6 0 -11 7 -11 9 0 12 24 11 93 -1 51 2 91 7
88 5 -3 5 -11 2 -17 -4 -7 -3 -9 1 -4 16 14 13 45 -4 40 -10 -3 -12 -1 -6 4 6
4 11 15 13 23 6 26 23 40 45 36 12 -1 23 -8 25 -14 2 -7 10 -12 17 -12 17 0
21 -27 20 -130 -1 -90 8 -114 38 -99 11 6 17 6 17 -1 0 -5 -5 -10 -12 -10 -6
0 -8 -3 -5 -6 4 -4 13 -2 20 4 8 7 16 9 20 6 3 -3 14 -1 24 6 16 10 16 10 -4
5 -15 -4 -21 -2 -19 9 1 9 6 19 11 23 4 4 5 2 0 -6 -5 -10 -4 -12 4 -7 6 4 9
11 6 16 -3 4 0 10 7 12 9 3 9 6 0 12 -7 4 -12 2 -12 -3 0 -6 -4 -11 -8 -11
-19 0 -5 62 17 79 17 13 19 18 7 18 -9 0 -16 -4 -16 -9 0 -4 -4 -8 -9 -8 -13
0 -1 40 13 41 6 0 2 4 -9 9 -17 7 -17 9 -2 9 9 1 17 8 17 17 0 8 -5 12 -11 9
-6 -4 -5 2 2 13 11 17 15 18 26 6 20 -19 26 -18 14 4 -8 15 -6 18 14 17 42 0
50 -19 55 -138 4 -99 7 -112 23 -111 9 1 17 -1 17 -5 0 -4 7 -8 15 -8 15 0 27
26 29 62 1 11 5 25 9 32 4 6 3 14 -1 17 -11 7 -10 106 1 123 4 7 0 16 -10 22
-10 6 -14 11 -9 11 5 0 3 7 -4 15 -7 8 -9 15 -4 15 5 0 -7 8 -26 19 -43 23
-99 20 -142 -7 -31 -20 -32 -20 -57 -2 -30 22 -65 30 -101 23z"/>
<path d="M1340 950 c0 -5 5 -10 11 -10 5 0 7 5 4 10 -3 6 -8 10 -11 10 -2 0
-4 -4 -4 -10z"/>
<path d="M2555 919 c-4 -6 -5 -12 -2 -15 2 -3 7 2 10 11 7 17 1 20 -8 4z"/>
<path d="M165 890 c-3 -5 -3 -10 2 -10 4 0 3 -4 -3 -8 -8 -5 -7 -11 4 -22 14
-13 15 -12 9 3 -3 9 -2 17 3 17 6 0 10 7 10 15 0 17 -16 20 -25 5z"/>
<path d="M413 885 c0 -8 4 -12 9 -9 4 3 8 9 8 15 0 5 -4 9 -8 9 -5 0 -9 -7 -9
-15z"/>
<path d="M1449 893 c-6 -38 -7 -64 -3 -60 7 6 14 67 9 67 -3 0 -6 -3 -6 -7z"/>
<path d="M360 876 c0 -2 8 -10 18 -17 15 -13 16 -12 3 4 -13 16 -21 21 -21 13z"/>
<path d="M1875 850 c3 -5 8 -10 11 -10 2 0 4 5 4 10 0 6 -5 10 -11 10 -5 0 -7
-4 -4 -10z"/>
<path d="M2555 839 c-4 -6 -5 -12 -2 -15 2 -3 7 2 10 11 7 17 1 20 -8 4z"/>
<path d="M149 783 c-13 -16 -12 -17 4 -4 9 7 17 15 17 17 0 8 -8 3 -21 -13z"/>
<path d="M766 777 c3 -10 9 -15 12 -12 3 3 0 11 -7 18 -10 9 -11 8 -5 -6z"/>
<path d="M1106 781 c-4 -5 -2 -12 3 -15 5 -4 12 -2 15 3 4 5 2 12 -3 15 -5 4
-12 2 -15 -3z"/>
<path d="M1175 779 c-4 -6 -4 -13 -1 -16 3 -4 6 -1 6 6 0 7 5 9 12 5 7 -4 8
-3 4 4 -9 15 -13 15 -21 1z"/>
<path d="M2535 780 c3 -5 8 -10 11 -10 2 0 4 5 4 10 0 6 -5 10 -11 10 -5 0 -7
-4 -4 -10z"/>
<path d="M667 765 c-6 -15 10 -32 20 -21 4 3 1 6 -5 6 -6 0 -9 7 -6 15 4 8 4
15 1 15 -3 0 -7 -7 -10 -15z"/>
<path d="M690 771 c0 -6 4 -13 10 -16 6 -3 7 1 4 9 -7 18 -14 21 -14 7z"/>
<path d="M998 762 c-3 -11 0 -19 7 -19 7 0 10 8 7 19 -2 10 -6 18 -7 18 -1 0
-5 -8 -7 -18z"/>
<path d="M2555 759 c-4 -6 -5 -12 -2 -15 2 -3 7 2 10 11 7 17 1 20 -8 4z"/>
<path d="M343 743 c0 -9 4 -10 14 -2 7 6 13 12 13 14 0 1 -6 2 -13 2 -8 0 -14
-6 -14 -14z"/>
<path d="M146 732 c-3 -5 1 -9 9 -9 8 0 12 4 9 9 -3 4 -7 8 -9 8 -2 0 -6 -4
-9 -8z"/>
<path d="M1340 710 c0 -5 5 -10 11 -10 5 0 7 5 4 10 -3 6 -8 10 -11 10 -2 0
-4 -4 -4 -10z"/>
<path d="M1192 702 c2 -5 -8 -19 -22 -31 -20 -18 -21 -20 -4 -12 30 14 47 38
34 46 -6 4 -9 2 -8 -3z"/>
<path d="M1855 690 c-3 -5 -1 -10 4 -10 6 0 11 5 11 10 0 6 -2 10 -4 10 -3 0
-8 -4 -11 -10z"/>
<path d="M546 664 c-5 -14 -4 -15 9 -4 17 14 19 20 6 20 -5 0 -12 -7 -15 -16z"/>
<path d="M2527 666 c-3 -8 -2 -18 3 -21 13 -8 20 9 11 24 -6 10 -10 9 -14 -3z"/>
<path d="M2402 656 c7 -8 15 -12 17 -11 5 6 -10 25 -20 25 -5 0 -4 -6 3 -14z"/>
<path d="M2207 649 c7 -7 15 -10 18 -7 3 3 -2 9 -12 12 -14 6 -15 5 -6 -5z"/>
<path d="M1325 641 c-6 -11 13 -26 22 -17 4 3 1 6 -6 6 -7 0 -9 5 -6 10 3 6 4
10 1 10 -3 0 -7 -4 -11 -9z"/>
<path d="M1811 643 c-1 -17 16 -25 25 -12 4 7 3 9 -4 5 -5 -3 -13 0 -15 6 -4
9 -6 10 -6 1z"/>
<path d="M2264 639 c-3 -6 -3 -13 0 -16 3 -4 6 -1 6 7 0 10 3 10 15 0 9 -7 17
-11 20 -9 2 3 -4 10 -15 17 -13 8 -21 8 -26 1z"/>
<path d="M790 631 c0 -6 4 -13 10 -16 6 -3 7 1 4 9 -7 18 -14 21 -14 7z"/>
<path d="M1069 618 c-14 -13 -17 -19 -8 -15 14 5 16 -3 15 -49 0 -30 -4 -54
-8 -54 -5 0 -8 -5 -8 -11 0 -5 5 -7 12 -3 7 4 8 3 4 -4 -4 -7 -3 -19 2 -28 8
-14 10 -14 21 0 8 9 10 16 6 16 -4 0 -1 8 6 17 8 10 9 14 2 10 -9 -5 -11 11
-9 63 2 39 0 72 -4 75 -4 3 -18 -5 -31 -17z"/>
<path d="M1640 630 c-8 -5 -10 -10 -5 -10 6 0 17 5 25 10 8 5 11 10 5 10 -5 0
-17 -5 -25 -10z"/>
<path d="M1685 630 c3 -6 2 -10 -3 -10 -4 0 -8 -36 -7 -79 0 -47 -3 -77 -9
-74 -5 4 -6 1 -2 -6 4 -7 15 -11 23 -9 21 4 25 175 5 183 -7 3 -10 0 -7 -5z"/>
<path d="M2496 632 c-2 -4 4 -8 14 -8 10 0 16 4 14 8 -3 4 -9 8 -14 8 -5 0
-11 -4 -14 -8z"/>
<path d="M895 610 c-4 -6 -3 -16 3 -22 6 -6 12 -6 17 2 4 6 3 16 -3 22 -6 6
-12 6 -17 -2z"/>
<path d="M1720 613 c0 -4 5 -15 10 -23 7 -11 12 -12 21 -3 8 8 6 14 -10 22
-12 7 -21 8 -21 4z"/>
<path d="M1200 570 c0 -11 -5 -20 -11 -20 -8 0 -8 -4 -1 -13 6 -7 10 -26 10
-43 -1 -41 11 -62 24 -40 5 9 7 20 4 25 -3 5 1 11 9 15 14 5 21 -21 16 -59 -1
-5 8 0 18 13 11 13 23 22 26 22 4 -1 10 2 13 6 4 4 2 5 -3 1 -6 -3 -17 -2 -25
4 -13 7 -12 9 2 9 9 0 19 4 22 9 4 5 -3 7 -14 4 -16 -4 -19 -2 -14 11 4 10 12
15 19 12 8 -3 16 1 18 9 8 19 -3 26 -24 15 -12 -7 -19 -6 -22 3 -2 7 -8 3 -16
-11 -9 -17 -9 -22 1 -22 9 0 9 -3 -2 -10 -21 -13 -27 -12 -27 5 0 8 4 15 9 15
4 0 8 7 8 16 0 8 -4 12 -10 9 -5 -3 -10 3 -10 14 0 12 -4 21 -10 21 -5 0 -10
-9 -10 -20z"/>
<path d="M593 549 c-30 -11 -29 -35 2 -55 14 -9 25 -21 25 -28 0 -7 -3 -8 -8
-1 -11 16 -37 12 -37 -5 0 -10 10 -15 30 -16 17 0 29 -6 28 -12 -2 -7 1 -12 7
-12 5 0 9 10 7 23 -1 14 3 22 13 22 9 0 15 -9 14 -24 -1 -22 0 -23 13 -6 13
18 13 18 13 -1 0 -16 2 -16 10 -4 8 13 12 13 32 1 21 -13 22 -13 9 2 -11 15
-11 18 5 24 14 6 19 18 19 45 0 20 -3 34 -6 32 -4 -2 -12 2 -18 10 -26 31
-104 -6 -94 -45 3 -11 0 -19 -6 -19 -7 0 -10 4 -7 9 3 5 -8 14 -24 21 -16 7
-27 17 -24 22 3 5 12 4 20 -3 11 -9 18 -9 25 -2 16 16 -21 33 -48 22z m149
-56 c-6 -3 -10 -8 -7 -13 3 -4 -4 -10 -15 -13 -11 -3 -23 0 -27 5 -4 7 -1 8 8
4 8 -5 8 -2 -2 6 -16 14 -14 38 5 50 6 4 20 -2 31 -13 14 -15 16 -23 7 -26z"/>
<path d="M833 552 c-12 -2 -27 -9 -33 -17 -15 -18 -21 -53 -10 -60 5 -3 7 -12
4 -19 -3 -8 0 -17 7 -22 7 -4 10 -3 6 3 -4 6 7 10 30 9 27 -1 36 3 39 17 2 15
0 16 -12 6 -11 -9 -14 -8 -14 2 0 11 -2 11 -10 -1 -8 -12 -10 -10 -10 10 0 20
-2 22 -10 10 -11 -17 -13 -1 -4 24 5 14 9 14 22 4 13 -11 14 -11 7 1 -6 11 -4
13 8 8 11 -4 17 -1 17 8 0 18 -9 22 -37 17z"/>
<path d="M910 550 c-20 -12 -22 -120 -3 -113 7 3 13 13 14 22 0 9 2 35 2 59 1
23 2 42 2 42 0 0 -7 -5 -15 -10z"/>
<path d="M972 549 c-20 -8 -35 -38 -36 -73 0 -13 10 -23 30 -30 22 -8 30 -17
28 -29 -1 -11 1 -16 4 -12 4 4 8 11 8 16 1 5 2 14 3 19 0 6 8 10 16 10 9 0 12
-6 9 -15 -4 -8 -1 -15 5 -15 6 0 10 6 9 13 -2 6 4 11 12 9 11 -2 10 1 -3 12
-14 10 -15 15 -5 19 7 3 8 6 3 6 -6 1 -9 16 -7 35 4 31 1 34 -26 38 -16 2 -39
1 -50 -3z m41 -38 c-2 -6 1 -11 7 -11 5 0 7 -7 4 -15 -4 -8 -10 -12 -15 -9 -5
3 -9 1 -9 -5 0 -6 -7 -8 -16 -4 -13 5 -13 7 -2 14 10 7 8 9 -7 10 -11 0 -15 3
-8 5 7 3 9 12 6 20 -4 10 1 13 18 10 13 -2 23 -9 22 -15z"/>
<path d="M1362 552 c-37 -6 -50 -63 -22 -96 19 -24 109 -17 121 9 10 20 10 20
-5 1 -9 -11 -17 -18 -17 -15 -2 4 -6 50 -8 80 -1 18 -31 27 -69 21z m33 -32
c-3 -5 -2 -10 4 -10 5 0 8 -6 7 -12 -3 -20 -16 -38 -27 -38 -6 0 -7 5 -4 10 3
6 -1 10 -9 10 -14 0 -16 17 -7 48 1 1 10 2 22 2 11 0 17 -4 14 -10z"/>
<path d="M1370 496 c0 -2 7 -7 16 -10 8 -3 12 -2 9 4 -6 10 -25 14 -25 6z"/>
<path d="M1571 544 c-17 -12 -22 -24 -19 -45 3 -15 0 -26 -4 -23 -5 3 -15 0
-23 -6 -19 -16 -19 -10 0 26 8 16 15 35 15 42 0 23 -18 12 -30 -19 l-13 -31
-13 31 c-7 17 -20 31 -28 31 -17 0 -13 -19 11 -56 7 -11 10 -24 6 -27 -3 -4
-1 -7 6 -7 7 0 9 -4 6 -10 -9 -14 8 -12 30 4 10 7 27 11 38 8 15 -4 16 -7 5
-14 -9 -6 -6 -7 10 -3 14 4 22 2 22 -6 0 -7 3 -9 7 -6 3 4 12 2 20 -5 11 -9
12 -7 7 8 -6 16 -5 17 7 7 7 -7 18 -13 24 -13 5 0 4 4 -4 9 -11 7 -12 13 -4
23 14 18 6 70 -14 86 -22 16 -34 15 -62 -4z m53 -19 c4 -11 0 -14 -17 -11 -33
7 -33 7 -12 16 11 5 21 9 21 9 1 1 4 -6 8 -14z m11 -43 c-3 -3 -18 -7 -33 -9
-25 -3 -26 -2 -9 11 17 13 55 11 42 -2z"/>
<path d="M1725 550 c4 -6 1 -18 -7 -27 -9 -12 -9 -15 0 -9 9 5 12 -2 12 -28 0
-19 5 -38 10 -41 11 -7 12 -4 14 35 1 14 4 30 8 35 3 6 1 17 -5 25 -14 17 -42
26 -32 10z"/>
<path d="M1810 551 c-16 -4 -25 -15 -26 -28 -1 -11 -4 -25 -8 -32 -4 -6 -2
-11 3 -11 6 0 11 -5 11 -11 0 -5 -4 -7 -10 -4 -5 3 -10 4 -10 1 0 -2 15 -12
32 -21 18 -9 27 -10 20 -3 -14 14 -17 84 -3 92 4 3 17 -2 27 -10 10 -9 12 -12
4 -8 -12 6 -13 5 -4 -7 7 -8 10 -26 9 -41 -3 -20 0 -25 11 -21 23 8 19 90 -5
103 -11 5 -21 10 -23 9 -2 -1 -14 -4 -28 -8z"/>
<path d="M1932 549 c-35 -13 -49 -61 -25 -86 18 -20 61 -34 67 -22 2 5 3 4 2
-2 -3 -16 -39 -21 -47 -7 -4 6 -12 7 -18 3 -15 -9 4 -35 26 -35 8 0 12 -4 9
-8 -2 -4 4 -8 14 -8 10 0 17 3 15 7 -3 3 7 11 21 18 15 7 22 16 18 23 -4 6 -7
35 -6 64 0 50 -1 52 -28 56 -15 2 -37 1 -48 -3z m47 -33 c9 -10 7 -19 -7 -36
l-19 -23 -16 23 c-8 12 -13 29 -10 36 7 18 37 18 52 0z"/>
<path d="M1955 510 c3 -5 8 -10 11 -10 2 0 4 5 4 10 0 6 -5 10 -11 10 -5 0 -7
-4 -4 -10z"/>
<path d="M1890 450 c0 -5 5 -10 11 -10 5 0 7 5 4 10 -3 6 -8 10 -11 10 -2 0
-4 -4 -4 -10z"/>
<path d="M1715 430 c3 -5 8 -10 11 -10 2 0 4 5 4 10 0 6 -5 10 -11 10 -5 0 -7
-4 -4 -10z"/>
</g>
</svg>
